HIERARCHY
ROOT Hip
{
	OFFSET 0 0 0
	CHANNELS 6 Xposition Yposition Zposition Zrotation Yrotation Xrotation
	JOINT ShoulderCenter
	{
		OFFSET 0 43.63 0
		CHANNELS 3 Zrotation Yrotation Xrotation
		JOINT Head
		{
			OFFSET 0 18.49 0
			CHANNELS 3 Zrotation Yrotation Xrotation
			End Site
			{
				OFFSET 0.0 8.91 0.0
			}
		}
		JOINT ShoulderLeft
		{
			OFFSET -14 0 0
			CHANNELS 3 Zrotation Yrotation Xrotation
			JOINT ElbowLeft
			{
				OFFSET -25 0 0
				CHANNELS 3 Zrotation Yrotation Xrotation
				JOINT WristLeft
				{
					OFFSET -23 0 0
					CHANNELS 3 Zrotation Yrotation Xrotation
					End Site
					{
						OFFSET -8.32 0.0 0.0
					}
				}
			}
		}
		JOINT ShoulderRight
		{
			OFFSET 14 0 0
			CHANNELS 3 Zrotation Yrotation Xrotation
			JOINT ElbowRight
			{
				OFFSET 25 0 0
				CHANNELS 3 Zrotation Yrotation Xrotation
				JOINT WristRight
				{
					OFFSET 23 0 0
					CHANNELS 3 Zrotation Yrotation Xrotation
					End Site
					{
						OFFSET 8.32 0.0 0.0
					}
				}
			}
		}
	}
	JOINT HipLeft
	{
		OFFSET -9.52 0 0
		CHANNELS 3 Zrotation Yrotation Xrotation
		JOINT KneeLeft
		{
			OFFSET 0 -37.32 0
			CHANNELS 3 Zrotation Yrotation Xrotation
			JOINT AnkleLeft
			{
				OFFSET 0 -34.6 0
				CHANNELS 3 Zrotation Yrotation Xrotation
				End Site
				{
					OFFSET 0.0 0.0 8.91
				}
			}
		}
	}
	JOINT HipRight
	{
		OFFSET 9.52 0 0
		CHANNELS 3 Zrotation Yrotation Xrotation
		JOINT KneeRight
		{
			OFFSET 0 -37.32 0
			CHANNELS 3 Zrotation Yrotation Xrotation
			JOINT AnkleRight
			{
				OFFSET 0 -34.6 0
				CHANNELS 3 Zrotation Yrotation Xrotation
				End Site
				{
					OFFSET 0.0 0.0 8.91
				}
			}
		}
	}
}
MOTION
Frames: 22
Frame Time: 0.033333
19.8953 -15.7517 -229.895 -0.298961 -0.6358 -14.14 15.4094 27.4688 -3.29834 0 0 0 -96.5659 -10.7731 -90.3675 1.65928e-006 22.8936 3.1263e-006 0 0 0 49.8482 -9.01183 -136.408 1.61782e-007 -39.8762 -6.72167e-006 0 0 0 -7.74767 0.458858 4.92871 -0.00627033 1.14268 13.2837 0 0 0 2.00273 -1.44252 17.5905 -2.08814 0.214737 -4.15401 1.77867e-009 3.49398e-008 1.34688e-008 
19.8279 -15.7726 -229.901 -0.603987 -0.735685 -14.1923 16.6713 27.5937 -2.40188 0 0 0 -97.875 -10.9612 -91.5337 -5.66057e-006 22.5142 -2.91474e-006 0 0 0 48.7473 -8.31365 -133.109 -1.60922e-006 -39.1382 1.31635e-006 0 0 0 -7.31313 0.472368 5.03838 -0.129548 1.13811 13.1795 3.70761e-007 3.26313e-008 -1.75633e-007 2.32401 -1.45482 17.7438 -2.04344 0.227803 -4.33829 1.48875e-010 3.39085e-008 8.25383e-009 
19.8279 -15.8389 -229.901 -0.813212 -0.684349 -13.805 17.1457 27.6029 -3.29428 0 0 0 -98.4582 -9.92088 -92.5415 -2.68075e-006 22.334 8.57507e-007 0 0 0 48.5834 -7.72722 -129.778 1.12978e-006 -37.4587 -5.16196e-006 0 0 0 -7.12215 0.395916 4.66599 -0.171275 1.02003 13.2262 0 0 0 2.51409 -1.60506 17.436 -2.04269 0.27693 -4.40594 0 0 0 
19.8279 -15.8672 -229.889 -1.54942 -0.853426 -13.4755 19.429 28.1816 -3.88888 0 0 0 -99.8603 -9.20943 -90.0804 -3.85823e-006 22.3715 -2.75772e-006 0 0 0 47.1591 -8.89887 -130.287 -1.37089e-006 -37.4894 5.08027e-006 0 0 0 -6.3735 0.370442 4.36872 -0.196329 1.00818 13.2271 0 0 0 3.27986 -1.60469 17.1482 -2.04774 0.28082 -4.36599 0 0 0 
20.6107 -16.312 -229.548 -1.57701 1.64764 -12.8934 18.3581 23.8274 -6.99597 0 0 0 -99.4812 -7.81611 -92.5767 0.460562 22.0426 0.219445 0 0 0 47.3645 -6.72127 -127.293 9.79897e-007 -36.8514 -1.15569e-006 0 0 0 -7.92154 0.358629 4.8232 1.40785 0.95545 12.581 3.64851e-007 -4.07321e-008 -1.5756e-007 2.44694 -1.31808 16.6898 -1.24316 0.271786 -4.41622 0 0 0 
20.8621 -16.4635 -229.413 -1.40001 2.2332 -12.5493 17.6697 22.7375 -8.12253 -6.49949e-007 4.75119e-009 4.079e-007 -99.077 -7.13434 -93.3277 0.412151 21.982 0.29992 0 0 0 47.7388 -6.15029 -127.386 -9.058e-006 -36.2932 -5.20513e-007 0 0 0 -8.57552 0.347885 4.80499 1.85961 0.946114 12.417 0 0 0 1.97294 -1.22507 16.5122 -0.967504 0.274752 -4.51194 4.57811e-009 -1.05687e-007 2.48448e-008 
20.9922 -16.5504 -229.343 -1.18999 2.52123 -12.2905 17.005 21.7728 -8.62623 0 0 0 -98.8383 -6.40233 -94.0746 -0.264172 21.713 0.34145 0 0 0 48.1917 -5.28387 -126.931 2.87509e-006 -35.9045 -3.15244e-006 0 0 0 -9.04672 0.33697 4.74327 2.11618 0.942668 12.3189 0 0 0 1.61194 -1.1677 16.3595 -0.825628 0.27518 -4.57088 0 0 0 
20.9922 -16.5504 -229.343 -1.1744 2.49344 -12.0855 16.9704 21.414 -8.69771 0 0 0 -98.9636 -5.69519 -94.4797 -1.12528 21.5108 0.352087 0 0 0 48.2347 -4.93547 -126.863 2.63675e-006 -35.9187 -1.06789e-006 0 0 0 -9.05912 0.311851 4.53672 2.11698 0.947407 12.3944 0 0 0 1.60056 -1.15329 16.1629 -0.824067 0.275577 -4.57713 0 0 0 
20.9922 -16.5504 -229.343 -0.86847 2.55367 -11.9685 16.0441 20.9214 -8.44029 0 0 0 -98.5244 -5.41349 -94.8044 -2.13144 21.3505 0.320512 0 0 0 48.849 -4.21604 -126.94 6.10817e-006 -35.9158 -4.23448e-006 0 0 0 -9.37124 0.299029 4.43257 2.11633 0.952704 12.4644 0 0 0 1.29116 -1.14589 16.0593 -0.824057 0.275563 -4.57689 0 0 0 
20.9352 -16.5119 -229.361 -0.519791 2.39239 -11.9015 15.0635 20.8863 -7.92724 0 0 0 -98.0675 -5.23326 -94.8453 -3.19837 21.1875 0.277765 0 0 0 49.5334 -3.73618 -127.175 -1.01197e-006 -36.1046 -1.86705e-006 0 0 0 -9.58433 0.294735 4.28458 1.98307 0.98187 12.5373 0 0 0 0.998299 -1.12419 16.0006 -0.875389 0.266603 -4.57101 3.52551e-009 -1.04512e-007 4.69559e-010 
20.8609 -16.4287 -229.388 -0.238245 2.3623 -11.8761 14.2291 20.8033 -7.33635 0 0 0 -97.7401 -5.05357 -94.8049 -4.30289 21.011 0.232605 0 0 0 50.1103 -3.40387 -127.638 7.88578e-006 -36.3991 -7.24505e-006 0 0 0 -9.68082 0.293515 4.20975 1.81088 0.989931 12.5904 0 0 0 0.754525 -1.12089 15.9356 -0.918367 0.26213 -4.53935 4.2087e-009 -2.50784e-009 2.5845e-008 
20.8609 -16.3249 -229.388 -0.00123348 2.47464 -11.8665 13.6564 20.6068 -6.85185 0 0 0 -97.6578 -4.70579 -94.7892 -5.46942 20.8518 0.165031 0 0 0 50.4619 -3.43072 -128.539 -3.49765e-006 -36.8367 -8.04223e-006 0 0 0 -9.75214 0.294888 4.16871 1.65178 0.995321 12.6463 3.6223e-007 -4.93923e-009 -1.4073e-007 0.51547 -1.11448 15.8839 -0.921563 0.259075 -4.50552 0 0 0 
20.8484 -16.2095 -229.388 -0.0154985 2.47376 -11.8409 14.0039 20.5489 -6.46991 0 0 0 -97.9179 -4.10998 -94.8655 -6.59616 20.9586 0.0805914 0 0 0 50.1927 -3.62199 -129.191 6.81703e-007 -37.2212 -6.5499e-006 0 0 0 -9.60532 0.280552 4.03167 1.52913 0.989496 12.7155 0 0 0 0.529787 -1.12217 15.8246 -0.927952 0.260762 -4.48386 3.33647e-009 -1.05538e-007 2.42313e-008 
20.8484 -16.1355 -229.37 -0.0390674 2.5776 -11.8821 14.2441 20.7797 -5.86447 0 0 0 -98.592 -4.65735 -94.3993 -6.70328 20.1265 0.0208791 0 0 0 50.0856 -4.11304 -131.041 -2.92411e-007 -38.2347 -4.85274e-006 0 0 0 -9.47367 0.28862 4.01113 1.52484 1.00016 12.527 0 0 0 0.393501 -1.02296 15.8417 -0.77089 0.239981 -4.44039 0 0 0 
20.8736 -15.92 -229.306 -0.2116 3.09335 -11.9579 15.0706 20.5822 -5.65368 0 0 0 -99.4156 -4.62237 -94.1282 -6.63741 20.0303 0.0444986 0 0 0 49.4533 -4.86315 -133.061 3.58101e-007 -38.8508 -3.11566e-006 0 0 0 -9.0488 0.286674 4.11059 1.25732 0.948928 12.6702 0 0 0 0.498566 -1.09334 15.8592 -0.745299 0.260311 -4.42278 0 0 0 
20.883 -15.6798 -229.2 -0.702746 3.93788 -12.3474 16.7265 19.7351 -4.63856 -6.46666e-007 -1.23743e-007 6.57366e-007 -100.56 -5.1256 -94.0377 -6.48573 20.3365 0.076638 0 0 0 48.2575 -4.56942 -133.467 -2.78051e-006 -38.8233 -1.56072e-006 0 0 0 -8.51693 0.305344 4.6564 1.24323 0.867229 12.7613 0 0 0 0.888727 -1.19407 16.1215 -0.708924 0.279484 -4.32841 1.21936e-008 -1.7393e-008 2.29251e-008 
20.8849 -15.6228 -229.184 -0.856346 4.14412 -12.4074 17.104 19.5877 -4.6089 0 0 0 -100.777 -5.24155 -93.9874 -6.31113 20.3379 0.0769307 0 0 0 47.9886 -4.69844 -133.566 -4.24799e-006 -38.818 1.54031e-006 0 0 0 -8.3389 0.288789 4.71806 1.20231 0.814137 12.8327 3.63487e-007 -1.32364e-008 -1.38338e-007 0.989702 -1.26292 16.1581 -0.691022 0.298589 -4.32727 1.11414e-008 -6.68231e-009 2.23382e-008 
20.9036 -15.6118 -229.181 -0.868294 4.01687 -12.3933 17.3685 19.5292 -4.76952 0 0 0 -100.887 -5.19708 -94.239 -6.10382 20.3223 0.0882252 0 0 0 48.0505 -4.46831 -133.524 1.49288e-006 -38.3952 -4.53509e-006 0 0 0 -8.17472 0.297823 4.60793 1.06537 0.863489 13 0 0 0 0.938839 -1.19217 16.1575 -0.660205 0.281785 -4.33356 0 0 0 
20.9071 -15.5953 -229.181 -1.02092 4.03084 -12.5252 18.0793 19.2743 -4.47035 -5.88034e-007 -1.49373e-007 6.36245e-007 -101.292 -5.42528 -94.4568 -5.91014 19.6755 0.0916579 0 0 0 47.4886 -4.51423 -134.206 1.81204e-007 -38.4389 -3.70131e-006 0 0 0 -7.98677 0.285964 4.60115 1.12189 0.856195 13.2331 0 0 0 1.0748 -1.19634 16.2328 -0.612648 0.279396 -4.25721 1.00999e-008 -9.77558e-009 2.44776e-008 
20.9146 -15.588 -229.181 -1.07546 4.06563 -12.569 18.3669 19.1348 -4.49178 0 0 0 -101.434 -5.49618 -94.5908 -5.48051 19.5943 0.176269 0 0 0 47.2125 -4.6559 -134.527 -2.2903e-006 -38.4989 -3.44736e-006 0 0 0 -7.92314 0.279477 4.58958 1.10328 0.846076 13.3169 0 0 0 1.04976 -1.19825 16.2228 -0.525114 0.282887 -4.21517 0 0 0 
20.9739 -15.5532 -229.203 -1.02132 4.0444 -12.5669 18.39 19.2063 -4.59528 0 0 0 -101.44 -5.52648 -94.5935 -5.0632 19.509 0.255757 0 0 0 47.1163 -5.95561 -136.69 2.89408e-006 -39.1609 -1.64631e-006 0 0 0 -7.95587 0.310837 4.57841 1.09809 0.932957 13.3322 0 0 0 0.906309 -1.06138 16.1963 -0.424961 0.252641 -4.19908 0 0 0 
20.9835 -15.5414 -229.203 -0.998344 3.98412 -12.5849 18.3593 19.2919 -4.65015 0 0 0 -101.351 -5.61081 -94.5875 -5.03072 19.2164 0.204158 0 0 0 47.2294 -7.18869 -138.807 2.19556e-006 -39.818 -1.93173e-007 0 0 0 -7.96086 0.308825 4.53635 1.09036 0.94316 13.411 3.688e-007 -9.59313e-009 -1.23828e-007 0.895173 -1.05585 16.2137 -0.451765 0.250379 -4.21895 0 0 0 
